<svg xmlns="http://www.w3.org/2000/svg" xmlns:xlink="http://www.w3.org/1999/xlink" width="400" zoomAndPan="magnify" viewBox="0 0 300 89.999999" height="120" preserveAspectRatio="xMidYMid meet" version="1.0"><defs><g/></defs><g fill="#ffffff" fill-opacity="1"><g transform="translate(0.00000166667, 69.004073)"><g><path d="M 46.40625 -6.015625 C 45.363281 -4.972656 43.945312 -3.945312 42.15625 -2.9375 C 40.375 -1.925781 38.316406 -1.078125 35.984375 -0.390625 C 33.660156 0.296875 31.1875 0.640625 28.5625 0.640625 C 25.289062 0.640625 22.234375 0.09375 19.390625 -1 C 16.546875 -2.101562 14.054688 -3.664062 11.921875 -5.6875 C 9.785156 -7.707031 8.125 -10.148438 6.9375 -13.015625 C 5.757812 -15.878906 5.171875 -19.082031 5.171875 -22.625 C 5.171875 -25.9375 5.796875 -28.992188 7.046875 -31.796875 C 8.296875 -34.597656 10.03125 -37.03125 12.25 -39.09375 C 14.46875 -41.164062 17 -42.769531 19.84375 -43.90625 C 22.6875 -45.050781 25.703125 -45.625 28.890625 -45.625 C 31.554688 -45.625 34.0625 -45.242188 36.40625 -44.484375 C 38.757812 -43.734375 40.851562 -42.773438 42.6875 -41.609375 C 44.519531 -40.453125 45.972656 -39.226562 47.046875 -37.9375 L 42.59375 -32.640625 C 40.695312 -34.398438 38.59375 -35.847656 36.28125 -36.984375 C 33.976562 -38.128906 31.425781 -38.703125 28.625 -38.703125 C 25.875 -38.703125 23.25 -38.054688 20.75 -36.765625 C 18.25 -35.472656 16.210938 -33.617188 14.640625 -31.203125 C 13.066406 -28.796875 12.28125 -25.9375 12.28125 -22.625 C 12.28125 -19 13.085938 -15.976562 14.703125 -13.5625 C 16.316406 -11.15625 18.425781 -9.335938 21.03125 -8.109375 C 23.632812 -6.878906 26.445312 -6.265625 29.46875 -6.265625 C 32.53125 -6.265625 35.179688 -6.859375 37.421875 -8.046875 C 39.660156 -9.234375 41.507812 -10.472656 42.96875 -11.765625 Z M 46.40625 -6.015625 "/></g></g></g><g fill="#ffffff" fill-opacity="1"><g transform="translate(51.701043, 69.004073)"><g><path d="M 18.421875 0 L 18.421875 -38.515625 L 3.9375 -38.515625 L 3.9375 -45.234375 L 40.265625 -45.234375 L 40.265625 -38.515625 L 25.390625 -38.515625 L 25.390625 0 Z M 18.421875 0 "/></g></g></g><g fill="#ffffff" fill-opacity="1"><g transform="translate(95.905431, 69.004073)"><g><path d="M 28.3125 -45.234375 C 32.050781 -45.234375 35.34375 -44.640625 38.1875 -43.453125 C 41.03125 -42.273438 43.421875 -40.640625 45.359375 -38.546875 C 47.304688 -36.460938 48.765625 -34.050781 49.734375 -31.3125 C 50.703125 -28.570312 51.1875 -25.675781 51.1875 -22.625 C 51.1875 -18.488281 50.320312 -14.707031 48.59375 -11.28125 C 46.875 -7.851562 44.3125 -5.113281 40.90625 -3.0625 C 37.5 -1.019531 33.300781 0 28.3125 0 L 8.53125 0 L 8.53125 -45.234375 Z M 27.984375 -6.71875 C 31.734375 -6.71875 34.78125 -7.4375 37.125 -8.875 C 39.476562 -10.320312 41.203125 -12.238281 42.296875 -14.625 C 43.390625 -17.019531 43.9375 -19.6875 43.9375 -22.625 C 43.9375 -25.46875 43.390625 -28.09375 42.296875 -30.5 C 41.203125 -32.914062 39.46875 -34.851562 37.09375 -36.3125 C 34.726562 -37.78125 31.691406 -38.515625 27.984375 -38.515625 L 15.515625 -38.515625 L 15.515625 -6.71875 Z M 27.984375 -6.71875 "/></g></g></g><g fill="#ffffff" fill-opacity="1"><g transform="translate(152.259564, 69.004073)"><g><path d="M 9.890625 -13.765625 C 11.953125 -11.179688 14.125 -9.175781 16.40625 -7.75 C 18.695312 -6.332031 21.566406 -5.625 25.015625 -5.625 C 26.773438 -5.625 28.472656 -5.867188 30.109375 -6.359375 C 31.753906 -6.859375 33.09375 -7.59375 34.125 -8.5625 C 35.15625 -9.53125 35.671875 -10.75 35.671875 -12.21875 C 35.671875 -14.375 34.59375 -15.957031 32.4375 -16.96875 C 30.28125 -17.976562 27.265625 -18.785156 23.390625 -19.390625 C 18.523438 -20.203125 14.660156 -21.65625 11.796875 -23.75 C 8.929688 -25.84375 7.5 -28.910156 7.5 -32.953125 C 7.5 -35.628906 8.296875 -37.9375 9.890625 -39.875 C 11.484375 -41.8125 13.59375 -43.296875 16.21875 -44.328125 C 18.84375 -45.367188 21.726562 -45.890625 24.875 -45.890625 C 28.84375 -45.890625 32.28125 -45.195312 35.1875 -43.8125 C 38.09375 -42.4375 40.363281 -40.476562 42 -37.9375 L 37.21875 -32.953125 C 35.84375 -34.941406 34.109375 -36.546875 32.015625 -37.765625 C 29.929688 -38.992188 27.488281 -39.609375 24.6875 -39.609375 C 21.882812 -39.609375 19.523438 -39.054688 17.609375 -37.953125 C 15.691406 -36.859375 14.734375 -35.320312 14.734375 -33.34375 C 14.734375 -31.0625 15.742188 -29.425781 17.765625 -28.4375 C 19.796875 -27.445312 22.488281 -26.671875 25.84375 -26.109375 C 28.039062 -25.765625 30.148438 -25.289062 32.171875 -24.6875 C 34.203125 -24.082031 36.023438 -23.296875 37.640625 -22.328125 C 39.253906 -21.359375 40.535156 -20.171875 41.484375 -18.765625 C 42.429688 -17.367188 42.90625 -15.660156 42.90625 -13.640625 C 42.90625 -10.753906 42.160156 -8.242188 40.671875 -6.109375 C 39.191406 -3.972656 37.070312 -2.3125 34.3125 -1.125 C 31.5625 0.0507812 28.3125 0.640625 24.5625 0.640625 C 20.59375 0.640625 16.992188 -0.046875 13.765625 -1.421875 C 10.535156 -2.796875 7.691406 -5.035156 5.234375 -8.140625 Z M 9.890625 -13.765625 "/></g></g></g><g fill="#ffffff" fill-opacity="1"><g transform="translate(200.600035, 69.004073)"><g><path d="M 8.53125 -45.234375 L 40.65625 -45.234375 L 40.65625 -38.515625 L 15.515625 -38.515625 L 15.515625 -26.5625 L 37.09375 -26.5625 L 37.09375 -19.84375 L 15.515625 -19.84375 L 15.515625 -6.71875 L 40.65625 -6.71875 L 40.65625 0 L 8.53125 0 Z M 8.53125 -45.234375 "/></g></g></g><g fill="#ffffff" fill-opacity="1"><g transform="translate(248.294232, 69.004073)"><g><path d="M 46.40625 -6.015625 C 45.363281 -4.972656 43.945312 -3.945312 42.15625 -2.9375 C 40.375 -1.925781 38.316406 -1.078125 35.984375 -0.390625 C 33.660156 0.296875 31.1875 0.640625 28.5625 0.640625 C 25.289062 0.640625 22.234375 0.09375 19.390625 -1 C 16.546875 -2.101562 14.054688 -3.664062 11.921875 -5.6875 C 9.785156 -7.707031 8.125 -10.148438 6.9375 -13.015625 C 5.757812 -15.878906 5.171875 -19.082031 5.171875 -22.625 C 5.171875 -25.9375 5.796875 -28.992188 7.046875 -31.796875 C 8.296875 -34.597656 10.03125 -37.03125 12.25 -39.09375 C 14.46875 -41.164062 17 -42.769531 19.84375 -43.90625 C 22.6875 -45.050781 25.703125 -45.625 28.890625 -45.625 C 31.554688 -45.625 34.0625 -45.242188 36.40625 -44.484375 C 38.757812 -43.734375 40.851562 -42.773438 42.6875 -41.609375 C 44.519531 -40.453125 45.972656 -39.226562 47.046875 -37.9375 L 42.59375 -32.640625 C 40.695312 -34.398438 38.59375 -35.847656 36.28125 -36.984375 C 33.976562 -38.128906 31.425781 -38.703125 28.625 -38.703125 C 25.875 -38.703125 23.25 -38.054688 20.75 -36.765625 C 18.25 -35.472656 16.210938 -33.617188 14.640625 -31.203125 C 13.066406 -28.796875 12.28125 -25.9375 12.28125 -22.625 C 12.28125 -19 13.085938 -15.976562 14.703125 -13.5625 C 16.316406 -11.15625 18.425781 -9.335938 21.03125 -8.109375 C 23.632812 -6.878906 26.445312 -6.265625 29.46875 -6.265625 C 32.53125 -6.265625 35.179688 -6.859375 37.421875 -8.046875 C 39.660156 -9.234375 41.507812 -10.472656 42.96875 -11.765625 Z M 46.40625 -6.015625 "/></g></g></g></svg>