<svg xmlns="http://www.w3.org/2000/svg" viewBox="0 0 58.81 81.15"><defs><style>.cls-1{fill:#fff;}</style></defs><g id="Layer_2" data-name="Layer 2"><g id="Layer_1-2" data-name="Layer 1"><polygon class="cls-1" points="35.17 16.67 38.05 11.68 32.29 11.68 29.41 6.7 26.53 11.68 20.77 11.68 23.65 16.67 20.77 21.66 26.53 21.66 29.41 26.64 32.29 21.66 38.05 21.66 35.17 16.67"/><path class="cls-1" d="M31.35,65a8.86,8.86,0,0,1,.1-8.88A8.9,8.9,0,1,0,39,69.5,8.88,8.88,0,0,1,31.35,65Z"/><path class="cls-1" d="M56.72,81.15H2.1A2.1,2.1,0,0,1,.39,77.84L50.31,7.5A2.1,2.1,0,0,0,48.6,4.19H10.23a2.1,2.1,0,0,0-1.7,3.32L27.25,33.7a2.12,2.12,0,0,1,0,2.48h0a2.1,2.1,0,0,1-3.38,0L.41,3.31A2.09,2.09,0,0,1,2.11,0H56.72a2.09,2.09,0,0,1,1.7,3.31L8.51,73.65a2.09,2.09,0,0,0,1.7,3.3H48.6a2.09,2.09,0,0,0,1.71-3.3L31.7,47.42a2.07,2.07,0,0,1,0-2.39h0a2.09,2.09,0,0,1,3.44,0l23.3,32.84A2.09,2.09,0,0,1,56.72,81.15Z"/></g></g></svg>