<svg xmlns="http://www.w3.org/2000/svg" viewBox="0 0 190.74 46.08"><defs><style>.cls-1{fill:#265477;}</style></defs><g id="Layer_2" data-name="Layer 2"><g id="Layer_1-2" data-name="Layer 1"><path class="cls-1" d="M40.16,34.27V11a.46.46,0,0,1,.53-.53H50A5.55,5.55,0,0,1,54.11,12a5.59,5.59,0,0,1,1.49,4.11V29.19A5.17,5.17,0,0,1,50,34.8H40.69A.47.47,0,0,1,40.16,34.27Zm3.14-1.9h6.36c2.12,0,3.18-1.09,3.18-3.29V16.17q0-3.29-3.18-3.29H43.3c-.25,0-.38.11-.38.34V32C42.92,32.26,43.05,32.37,43.3,32.37Z"/><path class="cls-1" d="M70.93,34.8h-4.5a5.62,5.62,0,0,1-4.11-1.48,5.52,5.52,0,0,1-1.49-4.13V16.06a5.53,5.53,0,0,1,1.49-4.13,5.62,5.62,0,0,1,4.11-1.47h4.5A5.53,5.53,0,0,1,75,12a5.55,5.55,0,0,1,1.5,4.11V29.19a5.19,5.19,0,0,1-5.61,5.61Zm-4.2-2.43h3.86c2.12,0,3.18-1.09,3.18-3.29V16.17q0-3.29-3.18-3.29H66.73q-3.14,0-3.14,3.29V29.08C63.59,31.28,64.64,32.37,66.73,32.37Z"/><path class="cls-1" d="M99.25,10.46h3.07a.47.47,0,0,1,.53.53V34.27a.47.47,0,0,1-.53.53h-1.67a.47.47,0,0,1-.53-.53V14.17H100L94.1,29a.73.73,0,0,1-.68.5H91.6A.62.62,0,0,1,91,29L85,14.13h-.15V34.27c0,.35-.17.53-.5.53H82.67a.47.47,0,0,1-.53-.53V11a.47.47,0,0,1,.53-.53h3.07a.45.45,0,0,1,.45.3L92.4,26.43h.19L98.8,10.76A.4.4,0,0,1,99.25,10.46Z"/><path class="cls-1" d="M111.78,11V34.27a.47.47,0,0,1-.53.53h-1.7a.47.47,0,0,1-.53-.53V11a.46.46,0,0,1,.53-.53h1.7A.47.47,0,0,1,111.78,11Z"/><path class="cls-1" d="M120.15,34.8h-1.67a.47.47,0,0,1-.53-.53V11a.47.47,0,0,1,.53-.53H120a.62.62,0,0,1,.61.3l10.45,18.36h.15V11a.46.46,0,0,1,.53-.53h1.66A.46.46,0,0,1,134,11V34.27a.47.47,0,0,1-.53.53H132a1,1,0,0,1-.79-.5L120.83,16.13h-.16V34.27A.46.46,0,0,1,120.15,34.8Z"/><path class="cls-1" d="M142.9,11V34.27a.47.47,0,0,1-.53.53h-1.71a.47.47,0,0,1-.53-.53V11a.47.47,0,0,1,.53-.53h1.71A.47.47,0,0,1,142.9,11Z"/><path class="cls-1" d="M162,10.46h1.71c.35,0,.53.16.53.49V29.19a5.13,5.13,0,0,1-5.57,5.61h-4.2a5.62,5.62,0,0,1-4.11-1.48,5.52,5.52,0,0,1-1.49-4.13V11a.46.46,0,0,1,.53-.53h1.7a.47.47,0,0,1,.53.53V29.08c0,2.2,1.05,3.29,3.14,3.29h3.56c2.12,0,3.18-1.09,3.18-3.29V11C161.52,10.63,161.68,10.46,162,10.46Z"/><path class="cls-1" d="M187.15,10.46h3.06a.46.46,0,0,1,.53.53V34.27a.47.47,0,0,1-.53.53h-1.66a.47.47,0,0,1-.53-.53V14.17h-.15L182,29a.73.73,0,0,1-.68.5H179.5a.62.62,0,0,1-.64-.5l-6-14.87h-.16V34.27c0,.35-.16.53-.49.53h-1.66a.47.47,0,0,1-.53-.53V11a.46.46,0,0,1,.53-.53h3.06a.45.45,0,0,1,.46.3l6.21,15.67h.18l6.21-15.67C186.74,10.56,186.89,10.46,187.15,10.46Z"/><polygon class="cls-1" points="19.97 9.46 21.6 6.63 18.33 6.63 16.7 3.8 15.06 6.63 11.79 6.63 13.43 9.46 11.79 12.3 15.06 12.3 16.7 15.13 18.33 12.3 21.6 12.3 19.97 9.46"/><path class="cls-1" d="M17.8,36.89a5,5,0,0,1,.06-5,5,5,0,1,0,2.41,9.45,5,5,0,0,0,1.87-1.84A5,5,0,0,1,17.8,36.89Z"/><path class="cls-1" d="M32.2,46.08h-31a1.19,1.19,0,0,1-1-1.88L28.57,4.26a1.19,1.19,0,0,0-1-1.88H5.81a1.19,1.19,0,0,0-1,1.88L15.47,19.14a1.17,1.17,0,0,1,0,1.4h0a1.18,1.18,0,0,1-1.92,0L.23,1.88A1.19,1.19,0,0,1,1.2,0h31a1.19,1.19,0,0,1,1,1.88L4.83,41.82a1.19,1.19,0,0,0,1,1.88H27.6a1.19,1.19,0,0,0,1-1.88L18,26.93a1.19,1.19,0,0,1,0-1.36h0a1.18,1.18,0,0,1,2,0L33.17,44.2A1.19,1.19,0,0,1,32.2,46.08Z"/></g></g></svg>